<svg width="210" height="123" viewBox="0 0 210 123" fill="none" xmlns="http://www.w3.org/2000/svg">
<g clip-path="url(#clip0_138_166)">
<path d="M154.71 27.7463H145.421C144.745 26.7279 144.088 25.6947 143.45 24.6467C142.746 23.4934 142.103 22.3037 141.525 21.0825C140.998 19.9777 140.558 18.8335 140.208 17.6604C139.894 16.622 139.731 15.5441 139.723 14.4594C139.706 13.6282 139.85 12.8016 140.147 12.0251C140.4 11.3719 140.786 10.7785 141.281 10.2826C141.75 9.82733 142.309 9.47556 142.922 9.2501C143.558 9.01836 144.231 8.90226 144.908 8.90728C145.999 8.91075 147.072 9.18986 148.026 9.71869C149.118 10.3422 150.059 11.1998 150.781 12.23L157.625 6.19514C155.897 3.97592 153.993 2.39299 151.915 1.44634C149.836 0.499695 147.487 0.0202864 144.868 0.00811517C142.826 -0.0108792 140.795 0.296604 138.851 0.918925C137.078 1.48436 135.433 2.39278 134.011 3.59253C132.622 4.7792 131.514 6.25902 130.765 7.92547C129.982 9.64161 129.591 11.6066 129.591 13.8204C129.591 16.0071 130.03 18.3156 130.907 20.7458C131.219 21.6003 131.585 22.4338 132.005 23.2409C130.405 21.2881 128.765 19.4482 127.085 17.7213C124.176 14.6925 120.945 11.9895 117.45 9.65987C114.129 7.45644 110.523 5.7168 106.731 4.48914C102.848 3.25521 98.7948 2.63913 94.7202 2.66346C91.1825 2.66346 88.1397 3.07525 85.5919 3.89884C83.044 4.72242 80.9512 5.85299 79.3135 7.29054C77.7275 8.65678 76.4856 10.3775 75.6886 12.3132C74.9009 14.2554 74.5018 16.3333 74.514 18.4292C74.514 21.2921 75.2707 24.3978 76.784 27.7463H51.0967V52.9406C49.7424 53.5816 48.3202 54.0682 46.857 54.391C45.1791 54.7956 43.459 54.9998 41.733 54.9996C41.2204 54.9996 40.7613 54.9793 40.3556 54.9387C39.9499 54.8981 39.5056 54.8515 39.0208 54.7967C38.5056 54.391 37.966 54.0015 37.398 53.6222C36.8278 53.2433 36.232 52.9044 35.6149 52.6079L35.5743 52.4051C37.9491 50.8661 39.7382 49.0769 40.9418 47.0376C42.0139 45.2103 42.6274 43.1505 42.7299 41.0345C42.8323 38.9184 42.4206 36.809 41.5301 34.8867C40.7218 33.1774 39.5652 31.6559 38.1344 30.4199C36.5895 29.0999 34.8099 28.0828 32.8886 27.4217C30.7209 26.6709 28.4396 26.301 26.1457 26.3283C24.1722 26.3401 22.206 26.5707 20.2833 27.016C18.2174 27.486 16.2127 28.1932 14.3093 29.1236L16.7435 37.9538C18.1294 37.3565 19.5523 36.849 21.0034 36.4345C22.4541 36.0166 23.9565 35.8049 25.4662 35.8056C27.4947 35.8056 29.1013 36.2647 30.286 37.183C31.4706 38.1012 32.065 39.5733 32.069 41.5991C32.069 42.9217 31.8128 44.0286 31.3002 44.9198C30.7968 45.8014 30.0698 46.5347 29.1926 47.0457C28.2154 47.6041 27.1455 47.9814 26.0342 48.1594C24.7365 48.383 23.4217 48.4916 22.1049 48.4839H21.3564C21.1056 48.485 20.855 48.4714 20.6058 48.4434V57.5575C20.902 57.5312 21.2549 57.5028 21.6586 57.4764L22.8757 57.3953C23.2814 57.3696 23.673 57.3493 24.0503 57.3344C24.4296 57.3222 24.7521 57.3141 25.024 57.3141C26.2412 57.3041 27.4541 57.4611 28.6287 57.7807C29.6769 58.0649 30.6526 58.569 31.4909 59.2595C32.3142 59.9518 32.9661 60.8252 33.3957 61.8114C33.8794 62.9784 34.1116 64.2344 34.0773 65.4972C34.0773 67.8192 33.4498 69.6686 32.1948 71.0453C30.9398 72.422 29.1236 73.111 26.7462 73.1123C25.2765 73.1269 23.8204 72.8296 22.4741 72.2401C21.1369 71.6441 19.9041 70.8372 18.8227 69.8504C17.6651 68.7974 16.6319 67.6152 15.7434 66.3269C14.792 64.9578 13.9392 63.5227 13.1915 62.0325C12.4181 60.4983 11.7287 58.9232 11.1265 57.3141C10.5179 55.6913 9.9709 54.1118 9.48541 52.5755L0.464527 56.2167C1.1664 58.2966 1.95617 60.3961 2.83385 62.5153C3.70202 64.6157 4.70344 66.6585 5.83202 68.6313C6.93349 70.5622 8.19348 72.3983 9.599 74.1205C10.9607 75.794 12.533 77.2845 14.2768 78.5549C16.0361 79.8275 17.9749 80.8311 20.0297 81.5328C22.2878 82.2857 24.6561 82.6553 27.0363 82.6261C29.4081 82.644 31.7674 82.2817 34.0245 81.553C36.0922 80.8944 38.0161 79.8495 39.6943 78.4737C41.3005 77.1373 42.5934 75.4642 43.4816 73.5728C44.3985 71.6443 44.8576 69.4637 44.8589 67.0308C44.8643 66.4079 44.8236 65.7855 44.7372 65.1686C44.6561 64.6277 44.5479 64.0191 44.4127 63.3429C45.036 63.341 45.6586 63.3004 46.2769 63.2212C46.924 63.1421 47.5528 63.0326 48.1594 62.8987C48.7659 62.7648 49.3278 62.6147 49.841 62.4524C50.2714 62.3224 50.6912 62.1597 51.0967 61.9655V88.1336H61.6653V36.8584H76.6156V88.1803H87.1863V36.8584H135.348V63.3166C134.772 64.1462 134.135 64.9321 133.443 65.6676C132.702 66.4613 131.873 67.1677 130.972 67.7732C130.035 68.4046 129.021 68.9151 127.956 69.2926C126.817 69.6912 125.618 69.8896 124.412 69.8789C123.06 69.8789 121.91 69.6564 120.963 69.2115C120.11 68.8282 119.348 68.2685 118.726 67.5692C118.105 66.8699 117.639 66.0469 117.359 65.1544C117.096 64.3499 116.959 63.5097 116.953 62.6634C116.966 61.8395 117.088 61.021 117.316 60.2291C117.576 59.3075 118.04 58.4562 118.673 57.7381C119.426 56.9017 120.355 56.2434 121.393 55.811C122.542 55.2998 124.034 55.0435 125.87 55.0422H130.771V45.932H99.0958V55.0462H109.384L109.425 55.2897C108.302 56.6257 107.461 58.1756 106.954 59.8457C106.511 61.3113 106.279 62.8323 106.265 64.3633C106.253 66.4151 106.66 68.4476 107.459 70.3373C108.235 72.1824 109.379 73.85 110.821 75.2382C112.326 76.6644 114.096 77.7828 116.03 78.5305C118.173 79.3634 120.456 79.7766 122.755 79.7477C123.773 79.7449 124.789 79.671 125.797 79.5266C126.882 79.3711 127.952 79.1269 128.996 78.7963C130.101 78.4487 131.172 78.0013 132.195 77.4595C133.268 76.8928 134.274 76.2069 135.194 75.4147L135.356 75.5364V88.1336H146.21V36.8584H189.544V46.5812H175.975C173.619 46.5629 171.267 46.7591 168.946 47.1674C166.988 47.497 165.122 48.2359 163.469 49.3359C161.892 50.4333 160.651 51.9475 159.885 53.7094C159.033 55.573 158.607 57.9761 158.609 60.9188C158.589 63.4406 158.912 65.9534 159.57 68.3879C160.179 70.6327 161.019 72.8082 162.078 74.8792C163.055 76.786 164.21 78.5966 165.526 80.2872C166.688 81.7856 167.939 83.2122 169.273 84.5593C170.351 85.6534 171.494 86.6816 172.695 87.6386C173.491 88.2825 174.33 88.8714 175.206 89.4014L181.606 82.2306C179.845 80.7101 178.168 79.0943 176.584 77.3905C175.149 75.8551 173.847 74.2007 172.693 72.4449C171.663 70.8752 170.823 69.1884 170.192 67.4203C169.608 65.7889 169.306 64.0696 169.301 62.3368C169.301 61.0399 169.484 59.958 169.849 59.0911C170.186 58.2592 170.764 57.5466 171.508 57.0443C172.371 56.4994 173.339 56.1408 174.348 55.9915C175.681 55.7742 177.029 55.6724 178.379 55.6872H189.558V88.1803H200.131V36.8584H208.961V27.7463H154.71ZM93.1806 27.7463H86.5392C85.8862 26.5711 85.3632 25.3285 84.9792 24.0401C84.648 22.9148 84.4773 21.7484 84.4721 20.5754C84.4569 19.3632 84.6773 18.1596 85.1212 17.0316C85.5619 15.9554 86.2581 15.0029 87.1498 14.2565C88.1738 13.4163 89.3592 12.795 90.6327 12.4308C92.2529 11.9693 93.9325 11.7505 95.6169 11.7817C97.7886 11.7805 99.9519 12.0531 102.055 12.5931C104.147 13.1256 106.184 13.8509 108.141 14.7596C110.066 15.6547 111.927 16.683 113.709 17.8369C115.478 18.985 117.132 20.167 118.671 21.3827C120.21 22.5985 121.608 23.8001 122.864 24.9875C123.927 25.9936 124.878 26.9119 125.716 27.7422H93.1806V27.7463Z" fill="#1B5F92"/>
<path d="M22.0806 122.584H18.8633L16.2262 115.626H5.71031L3.24362 122.584H-0.00203323L9.51584 97.7671H12.5262L22.0806 122.584ZM15.2809 113.016L11.3861 102.443C11.2136 101.901 11.0867 101.345 11.0068 100.781H10.9378C10.8542 101.347 10.7183 101.903 10.5321 102.443L6.67792 113.016H15.2809Z" fill="#1B5F92"/>
<path d="M43.5221 122.584H40.0615L35.903 115.626C35.57 115.052 35.2001 114.501 34.7954 113.975C34.4761 113.559 34.1069 113.183 33.6959 112.857C33.3318 112.575 32.9194 112.361 32.4788 112.226C32.004 112.087 31.5111 112.019 31.0162 112.024H28.6408V122.572H25.7319V97.7671H33.1401C34.1552 97.7569 35.1664 97.8936 36.1423 98.1728C37.0133 98.4206 37.8253 98.8414 38.5299 99.4102C39.2089 99.9693 39.7508 100.676 40.1142 101.477C40.5119 102.391 40.7063 103.38 40.6842 104.376C40.6936 105.186 40.5618 105.991 40.2947 106.756C40.0451 107.46 39.6699 108.114 39.1872 108.685C38.6963 109.261 38.1113 109.75 37.4568 110.131C36.7448 110.544 35.9788 110.855 35.1808 111.056V111.125C35.5661 111.292 35.9298 111.504 36.2641 111.758C36.5827 112.007 36.875 112.287 37.1363 112.596C37.433 112.945 37.7081 113.312 37.9599 113.695C38.2304 114.101 38.5326 114.574 38.8667 115.115L43.5221 122.584ZM28.6408 100.398V109.397H32.5863C33.2723 109.403 33.9543 109.292 34.6027 109.068C35.194 108.864 35.7383 108.543 36.2032 108.125C36.6594 107.705 37.0193 107.192 37.258 106.62C37.5196 105.986 37.6493 105.307 37.6394 104.622C37.6394 103.295 37.2094 102.259 36.3493 101.514C35.4892 100.769 34.2463 100.397 32.6208 100.398H28.6408Z" fill="#1B5F92"/>
<path d="M60.6896 100.398H53.5248V122.584H50.6179V100.398H43.4714V97.761H60.6896V100.398Z" fill="#1B5F92"/>
<path d="M92.8418 120.888C90.3063 122.308 87.4425 123.036 84.537 123C80.9925 123 78.1282 121.857 75.9442 119.572C73.7601 117.286 72.6667 114.264 72.664 110.504C72.664 106.662 73.8811 103.51 76.3154 101.047C78.7496 98.5846 81.8269 97.3533 85.5472 97.3533C88.2519 97.3533 90.5192 97.7915 92.3489 98.6678V101.887C90.3406 100.617 87.9639 99.9823 85.2186 99.9823C82.4395 99.9823 80.1608 100.94 78.3824 102.855C76.6041 104.77 75.7136 107.25 75.7109 110.297C75.7109 113.436 76.5358 115.902 78.1857 117.695C79.8356 119.489 82.0737 120.385 84.9001 120.385C86.838 120.385 88.5163 119.999 89.9349 119.227V112.269H84.5005V109.632H92.8418V120.888Z" fill="#1B5F92"/>
<path d="M117.815 122.584H114.596L111.959 115.626H101.443L98.968 122.584H95.7325L105.25 97.7671H108.263L117.815 122.584ZM111.013 113.016L107.119 102.443C106.946 101.901 106.819 101.345 106.739 100.781H106.67C106.587 101.347 106.451 101.903 106.265 102.443L102.41 113.016H111.013Z" fill="#1B5F92"/>
<path d="M134.342 122.584H121.466V97.7671H124.373V119.953H134.342V122.584Z" fill="#1B5F92"/>
<path d="M151.022 122.584H138.141V97.7671H141.05V119.953H151.022V122.584Z" fill="#1B5F92"/>
<path d="M167.983 122.584H154.83V97.7671H167.429V100.404H157.737V108.658H166.701V111.273H157.737V119.953H167.983V122.584Z" fill="#1B5F92"/>
<path d="M190.548 122.584H187.087L182.933 115.626C182.601 115.052 182.231 114.5 181.825 113.975C181.507 113.559 181.138 113.184 180.728 112.857C180.364 112.575 179.951 112.361 179.511 112.226C179.036 112.087 178.543 112.019 178.048 112.024H175.669V122.572H172.762V97.7671H180.168C181.184 97.7568 182.196 97.8935 183.172 98.1728C184.043 98.4206 184.855 98.8414 185.56 99.4102C186.239 99.9688 186.78 100.676 187.142 101.477C187.541 102.39 187.737 103.38 187.714 104.376C187.724 105.186 187.592 105.991 187.325 106.756C187.075 107.46 186.7 108.114 186.217 108.685C185.726 109.261 185.141 109.75 184.487 110.131C183.775 110.544 183.009 110.855 182.211 111.056V111.125C182.596 111.291 182.959 111.504 183.292 111.758C183.612 112.006 183.905 112.287 184.166 112.596C184.463 112.945 184.737 113.312 184.988 113.695C185.258 114.101 185.561 114.574 185.897 115.115L190.548 122.584ZM175.669 100.398V109.397H179.616C180.302 109.403 180.983 109.292 181.631 109.068C182.223 108.864 182.768 108.544 183.233 108.125C183.689 107.705 184.049 107.192 184.288 106.62C184.549 105.986 184.678 105.306 184.667 104.622C184.667 103.295 184.238 102.259 183.379 101.514C182.52 100.769 181.278 100.397 179.651 100.398H175.669Z" fill="#1B5F92"/>
<path d="M209.411 97.7671L201.228 113.421V122.594H198.319V113.48L190.343 97.7671H193.648L199.2 108.981C199.269 109.116 199.472 109.624 199.808 110.504H199.861C200.034 109.978 200.254 109.468 200.518 108.981L206.332 97.7671H209.411Z" fill="#1B5F92"/>
</g>
<defs>
<clipPath id="clip0_138_166">
<rect width="209.411" height="123" fill="white"/>
</clipPath>
</defs>
</svg>
